<mxfile host="app.diagrams.net" agent="Mozilla/5.0 (Windows NT 10.0; Win64; x64) AppleWebKit/537.36 (KHTML, like Gecko) Chrome/130.0.0.0 Safari/537.36" version="24.8.3">
  <diagram name="Halaman-1" id="ddb-7g2Z2ZshsxjK-HZH">
    <mxGraphModel grid="1" page="1" gridSize="10" guides="1" tooltips="1" connect="1" arrows="1" fold="1" pageScale="1" pageWidth="827" pageHeight="1169" math="0" shadow="0">
      <root>
        <mxCell id="0" />
        <mxCell id="1" parent="0" />
        <mxCell id="cA1lC-_viOXXc_bBzLtj-1" value="&lt;font style=&quot;font-size: 14px;&quot; face=&quot;Comic Sans MS&quot;&gt;Mulai&lt;/font&gt;" style="rounded=0;whiteSpace=wrap;html=1;" vertex="1" parent="1">
          <mxGeometry x="303" y="40" width="120" height="60" as="geometry" />
        </mxCell>
        <mxCell id="cA1lC-_viOXXc_bBzLtj-2" value="" style="endArrow=classic;html=1;rounded=0;exitX=0.5;exitY=1;exitDx=0;exitDy=0;" edge="1" parent="1">
          <mxGeometry width="50" height="50" relative="1" as="geometry">
            <mxPoint x="362.5" y="100" as="sourcePoint" />
            <mxPoint x="362.5" y="160" as="targetPoint" />
          </mxGeometry>
        </mxCell>
        <mxCell id="cA1lC-_viOXXc_bBzLtj-3" value="&lt;div&gt;&lt;font style=&quot;font-size: 14px;&quot; face=&quot;Comic Sans MS&quot;&gt;&lt;br&gt;&lt;/font&gt;&lt;/div&gt;&lt;font style=&quot;font-size: 14px;&quot; face=&quot;Comic Sans MS&quot;&gt;&lt;div&gt;&lt;font style=&quot;&quot; face=&quot;Comic Sans MS&quot;&gt;&lt;br&gt;&lt;/font&gt;&lt;/div&gt;Inisialisasi Serial&lt;/font&gt;&lt;div&gt;&lt;font style=&quot;font-size: 14px;&quot; face=&quot;Comic Sans MS&quot;&gt;Inisialisasi Sensor DHT&lt;/font&gt;&lt;/div&gt;&lt;div&gt;&lt;font style=&quot;font-size: 14px;&quot; face=&quot;Comic Sans MS&quot;&gt;&lt;font style=&quot;&quot;&gt;Siapkan Pin LED (&lt;font style=&quot;&quot;&gt;Output&lt;/font&gt;)&lt;/font&gt;&amp;nbsp;&lt;br&gt;&lt;/font&gt;&lt;div&gt;&lt;div&gt;&lt;font size=&quot;3&quot;&gt;&lt;br&gt;&lt;/font&gt;&lt;/div&gt;&lt;/div&gt;&lt;div&gt;&lt;div&gt;&lt;br&gt;&lt;/div&gt;&lt;/div&gt;&lt;/div&gt;" style="rounded=0;whiteSpace=wrap;html=1;" vertex="1" parent="1">
          <mxGeometry x="263" y="160" width="200" height="70" as="geometry" />
        </mxCell>
        <mxCell id="cA1lC-_viOXXc_bBzLtj-4" value="" style="endArrow=classic;html=1;rounded=0;exitX=0.5;exitY=1;exitDx=0;exitDy=0;" edge="1" parent="1">
          <mxGeometry width="50" height="50" relative="1" as="geometry">
            <mxPoint x="362.5" y="230" as="sourcePoint" />
            <mxPoint x="362.5" y="290" as="targetPoint" />
          </mxGeometry>
        </mxCell>
        <mxCell id="cA1lC-_viOXXc_bBzLtj-5" value="" style="edgeStyle=orthogonalEdgeStyle;rounded=0;orthogonalLoop=1;jettySize=auto;html=1;" edge="1" parent="1" source="cA1lC-_viOXXc_bBzLtj-6" target="cA1lC-_viOXXc_bBzLtj-8">
          <mxGeometry relative="1" as="geometry" />
        </mxCell>
        <mxCell id="cA1lC-_viOXXc_bBzLtj-6" value="&lt;font face=&quot;Comic Sans MS&quot;&gt;&lt;span style=&quot;font-size: 14px;&quot;&gt;Baca&amp;nbsp;&lt;/span&gt;&lt;/font&gt;&lt;div&gt;&lt;font face=&quot;Comic Sans MS&quot;&gt;&lt;span style=&quot;font-size: 14px;&quot;&gt;Kelembaban&lt;/span&gt;&lt;/font&gt;&lt;/div&gt;" style="rounded=0;whiteSpace=wrap;html=1;" vertex="1" parent="1">
          <mxGeometry x="303" y="290" width="120" height="60" as="geometry" />
        </mxCell>
        <mxCell id="cA1lC-_viOXXc_bBzLtj-7" value="" style="endArrow=classic;html=1;rounded=0;exitX=0.5;exitY=1;exitDx=0;exitDy=0;" edge="1" parent="1">
          <mxGeometry width="50" height="50" relative="1" as="geometry">
            <mxPoint x="362.5" y="350" as="sourcePoint" />
            <mxPoint x="362.5" y="410" as="targetPoint" />
          </mxGeometry>
        </mxCell>
        <mxCell id="cA1lC-_viOXXc_bBzLtj-8" value="&lt;font face=&quot;Comic Sans MS&quot;&gt;&lt;span style=&quot;font-size: 14px;&quot;&gt;Baca Suhu&lt;/span&gt;&lt;/font&gt;" style="rounded=0;whiteSpace=wrap;html=1;" vertex="1" parent="1">
          <mxGeometry x="303" y="410" width="120" height="60" as="geometry" />
        </mxCell>
        <mxCell id="cA1lC-_viOXXc_bBzLtj-9" value="" style="endArrow=classic;html=1;rounded=0;exitX=0.5;exitY=1;exitDx=0;exitDy=0;" edge="1" parent="1">
          <mxGeometry width="50" height="50" relative="1" as="geometry">
            <mxPoint x="362.5" y="470" as="sourcePoint" />
            <mxPoint x="362.5" y="530" as="targetPoint" />
          </mxGeometry>
        </mxCell>
        <mxCell id="cA1lC-_viOXXc_bBzLtj-10" value="&lt;font style=&quot;font-size: 14px;&quot; face=&quot;Comic Sans MS&quot;&gt;Pembacaan Berhasil?&lt;/font&gt;" style="rhombus;whiteSpace=wrap;html=1;" vertex="1" parent="1">
          <mxGeometry x="303" y="530" width="120" height="120" as="geometry" />
        </mxCell>
        <mxCell id="cA1lC-_viOXXc_bBzLtj-11" value="" style="endArrow=classic;html=1;rounded=0;" edge="1" parent="1">
          <mxGeometry width="50" height="50" relative="1" as="geometry">
            <mxPoint x="223" y="590" as="sourcePoint" />
            <mxPoint x="223" y="680" as="targetPoint" />
          </mxGeometry>
        </mxCell>
        <mxCell id="cA1lC-_viOXXc_bBzLtj-12" value="" style="endArrow=none;html=1;rounded=0;entryX=0;entryY=0.5;entryDx=0;entryDy=0;" edge="1" parent="1" target="cA1lC-_viOXXc_bBzLtj-10">
          <mxGeometry width="50" height="50" relative="1" as="geometry">
            <mxPoint x="223" y="590" as="sourcePoint" />
            <mxPoint x="273" y="540" as="targetPoint" />
          </mxGeometry>
        </mxCell>
        <mxCell id="cA1lC-_viOXXc_bBzLtj-13" value="" style="endArrow=none;html=1;rounded=0;entryX=0;entryY=0.5;entryDx=0;entryDy=0;" edge="1" parent="1">
          <mxGeometry width="50" height="50" relative="1" as="geometry">
            <mxPoint x="423" y="589.5" as="sourcePoint" />
            <mxPoint x="503" y="589.5" as="targetPoint" />
          </mxGeometry>
        </mxCell>
        <mxCell id="cA1lC-_viOXXc_bBzLtj-14" value="" style="endArrow=classic;html=1;rounded=0;" edge="1" parent="1">
          <mxGeometry width="50" height="50" relative="1" as="geometry">
            <mxPoint x="503" y="590" as="sourcePoint" />
            <mxPoint x="503" y="680" as="targetPoint" />
          </mxGeometry>
        </mxCell>
        <mxCell id="cA1lC-_viOXXc_bBzLtj-15" value="&lt;font style=&quot;font-size: 14px;&quot; face=&quot;Comic Sans MS&quot;&gt;Tampilkan Pesan Kesalahan&lt;/font&gt;" style="rounded=0;whiteSpace=wrap;html=1;" vertex="1" parent="1">
          <mxGeometry x="153" y="680" width="140" height="70" as="geometry" />
        </mxCell>
        <mxCell id="cA1lC-_viOXXc_bBzLtj-27" value="" style="edgeStyle=orthogonalEdgeStyle;rounded=0;orthogonalLoop=1;jettySize=auto;html=1;" edge="1" parent="1" source="cA1lC-_viOXXc_bBzLtj-16" target="cA1lC-_viOXXc_bBzLtj-26">
          <mxGeometry relative="1" as="geometry" />
        </mxCell>
        <mxCell id="cA1lC-_viOXXc_bBzLtj-16" value="&lt;font face=&quot;Comic Sans MS&quot;&gt;&lt;span style=&quot;font-size: 14px;&quot;&gt;Tampilkan Kelembaban dan Suhu di Serial Monitor&lt;/span&gt;&lt;/font&gt;" style="rounded=0;whiteSpace=wrap;html=1;" vertex="1" parent="1">
          <mxGeometry x="413" y="680" width="180" height="70" as="geometry" />
        </mxCell>
        <mxCell id="cA1lC-_viOXXc_bBzLtj-23" value="" style="endArrow=none;html=1;rounded=0;" edge="1" parent="1">
          <mxGeometry width="50" height="50" relative="1" as="geometry">
            <mxPoint x="673" y="1131.3333740234375" as="sourcePoint" />
            <mxPoint x="673" y="320" as="targetPoint" />
          </mxGeometry>
        </mxCell>
        <mxCell id="cA1lC-_viOXXc_bBzLtj-24" value="" style="endArrow=classic;html=1;rounded=0;entryX=1;entryY=0.5;entryDx=0;entryDy=0;" edge="1" parent="1" target="cA1lC-_viOXXc_bBzLtj-6">
          <mxGeometry width="50" height="50" relative="1" as="geometry">
            <mxPoint x="673" y="320" as="sourcePoint" />
            <mxPoint x="483" y="320" as="targetPoint" />
          </mxGeometry>
        </mxCell>
        <mxCell id="cA1lC-_viOXXc_bBzLtj-25" value="" style="endArrow=classic;html=1;rounded=0;exitX=0.5;exitY=1;exitDx=0;exitDy=0;" edge="1" parent="1">
          <mxGeometry width="50" height="50" relative="1" as="geometry">
            <mxPoint x="502.5" y="750" as="sourcePoint" />
            <mxPoint x="502.5" y="810" as="targetPoint" />
          </mxGeometry>
        </mxCell>
        <mxCell id="cA1lC-_viOXXc_bBzLtj-26" value="&lt;font face=&quot;Comic Sans MS&quot;&gt;&lt;span style=&quot;font-size: 14px;&quot;&gt;Suhu &amp;gt;= 27 C&lt;/span&gt;&lt;/font&gt;" style="rhombus;whiteSpace=wrap;html=1;" vertex="1" parent="1">
          <mxGeometry x="443" y="810" width="120" height="120" as="geometry" />
        </mxCell>
        <mxCell id="cA1lC-_viOXXc_bBzLtj-28" value="" style="endArrow=classic;html=1;rounded=0;" edge="1" parent="1">
          <mxGeometry width="50" height="50" relative="1" as="geometry">
            <mxPoint x="403" y="870" as="sourcePoint" />
            <mxPoint x="403" y="960" as="targetPoint" />
          </mxGeometry>
        </mxCell>
        <mxCell id="cA1lC-_viOXXc_bBzLtj-29" value="" style="endArrow=classic;html=1;rounded=0;" edge="1" parent="1">
          <mxGeometry width="50" height="50" relative="1" as="geometry">
            <mxPoint x="603" y="870" as="sourcePoint" />
            <mxPoint x="603" y="960" as="targetPoint" />
          </mxGeometry>
        </mxCell>
        <mxCell id="cA1lC-_viOXXc_bBzLtj-30" value="" style="endArrow=none;html=1;rounded=0;" edge="1" parent="1">
          <mxGeometry width="50" height="50" relative="1" as="geometry">
            <mxPoint x="403" y="870" as="sourcePoint" />
            <mxPoint x="443" y="870" as="targetPoint" />
          </mxGeometry>
        </mxCell>
        <mxCell id="cA1lC-_viOXXc_bBzLtj-31" value="" style="endArrow=none;html=1;rounded=0;" edge="1" parent="1">
          <mxGeometry width="50" height="50" relative="1" as="geometry">
            <mxPoint x="563" y="869.5" as="sourcePoint" />
            <mxPoint x="603" y="869.5" as="targetPoint" />
          </mxGeometry>
        </mxCell>
        <mxCell id="cA1lC-_viOXXc_bBzLtj-32" value="&lt;span style=&quot;font-family: &amp;quot;Comic Sans MS&amp;quot;; font-size: 14px;&quot;&gt;LED Mati&lt;/span&gt;" style="rounded=0;whiteSpace=wrap;html=1;" vertex="1" parent="1">
          <mxGeometry x="533" y="960" width="120" height="60" as="geometry" />
        </mxCell>
        <mxCell id="cA1lC-_viOXXc_bBzLtj-33" value="&lt;font face=&quot;Comic Sans MS&quot;&gt;&lt;span style=&quot;font-size: 14px;&quot;&gt;LED Menyala&lt;/span&gt;&lt;/font&gt;" style="rounded=0;whiteSpace=wrap;html=1;" vertex="1" parent="1">
          <mxGeometry x="343" y="960" width="120" height="60" as="geometry" />
        </mxCell>
        <mxCell id="cA1lC-_viOXXc_bBzLtj-34" value="&lt;font face=&quot;Comic Sans MS&quot;&gt;&lt;span style=&quot;font-size: 14px;&quot;&gt;Tunggu 2 detik&lt;/span&gt;&lt;/font&gt;" style="rounded=0;whiteSpace=wrap;html=1;" vertex="1" parent="1">
          <mxGeometry x="443" y="1080" width="120" height="60" as="geometry" />
        </mxCell>
        <mxCell id="cA1lC-_viOXXc_bBzLtj-35" value="" style="endArrow=none;html=1;rounded=0;" edge="1" parent="1">
          <mxGeometry width="50" height="50" relative="1" as="geometry">
            <mxPoint x="402.5" y="1110" as="sourcePoint" />
            <mxPoint x="402.5" y="1020" as="targetPoint" />
          </mxGeometry>
        </mxCell>
        <mxCell id="cA1lC-_viOXXc_bBzLtj-36" value="" style="endArrow=classic;html=1;rounded=0;entryX=0;entryY=1;entryDx=0;entryDy=0;" edge="1" parent="1">
          <mxGeometry width="50" height="50" relative="1" as="geometry">
            <mxPoint x="403" y="1110" as="sourcePoint" />
            <mxPoint x="443" y="1109.5" as="targetPoint" />
          </mxGeometry>
        </mxCell>
        <mxCell id="cA1lC-_viOXXc_bBzLtj-37" value="" style="endArrow=none;html=1;rounded=0;" edge="1" parent="1">
          <mxGeometry width="50" height="50" relative="1" as="geometry">
            <mxPoint x="603" y="1110" as="sourcePoint" />
            <mxPoint x="603" y="1020" as="targetPoint" />
          </mxGeometry>
        </mxCell>
        <mxCell id="cA1lC-_viOXXc_bBzLtj-40" value="" style="endArrow=classic;html=1;rounded=0;" edge="1" parent="1">
          <mxGeometry width="50" height="50" relative="1" as="geometry">
            <mxPoint x="603" y="1110" as="sourcePoint" />
            <mxPoint x="563" y="1110" as="targetPoint" />
          </mxGeometry>
        </mxCell>
        <mxCell id="cA1lC-_viOXXc_bBzLtj-42" value="" style="endArrow=none;html=1;rounded=0;" edge="1" parent="1">
          <mxGeometry width="50" height="50" relative="1" as="geometry">
            <mxPoint x="563" y="1130" as="sourcePoint" />
            <mxPoint x="673" y="1130" as="targetPoint" />
          </mxGeometry>
        </mxCell>
        <mxCell id="cA1lC-_viOXXc_bBzLtj-43" value="" style="endArrow=none;html=1;rounded=0;" edge="1" parent="1">
          <mxGeometry width="50" height="50" relative="1" as="geometry">
            <mxPoint x="220" y="1130" as="sourcePoint" />
            <mxPoint x="220" y="750" as="targetPoint" />
          </mxGeometry>
        </mxCell>
        <mxCell id="cA1lC-_viOXXc_bBzLtj-44" value="" style="endArrow=classic;html=1;rounded=0;" edge="1" parent="1">
          <mxGeometry width="50" height="50" relative="1" as="geometry">
            <mxPoint x="220" y="1130" as="sourcePoint" />
            <mxPoint x="440" y="1130" as="targetPoint" />
          </mxGeometry>
        </mxCell>
      </root>
    </mxGraphModel>
  </diagram>
</mxfile>
